<?xml version="1.0" standalone="no"?>
<!DOCTYPE svg PUBLIC "-//W3C//DTD SVG 20010904//EN"
 "http://www.w3.org/TR/2001/REC-SVG-20010904/DTD/svg10.dtd">
<svg version="1.0" xmlns="http://www.w3.org/2000/svg"
 width="988.000000pt" height="988.000000pt" viewBox="0 0 988.000000 988.000000"
 preserveAspectRatio="xMidYMid meet">
<metadata>
Created by potrace 1.14, written by Peter Selinger 2001-2017
</metadata>
<g transform="translate(0.000000,988.000000) scale(0.100000,-0.100000)"
fill="#000000" stroke="none">
<path d="M4925 9608 c-69 -41 -148 -241 -181 -458 -2 -19 -7 -46 -9 -60 -23
-122 -37 -345 -39 -610 -1 -107 0 -199 2 -203 2 -4 6 -45 8 -90 5 -105 9 -150
29 -302 2 -16 13 -88 25 -160 29 -172 28 -166 35 -195 3 -14 10 -45 15 -70 5
-25 32 -139 60 -255 29 -115 54 -217 56 -225 10 -44 33 -123 37 -126 3 -4 9
18 32 121 2 11 14 58 25 105 12 47 24 96 26 110 3 14 12 52 21 85 8 33 17 69
19 80 19 99 27 134 34 160 5 17 11 44 14 60 7 45 16 87 22 115 3 14 8 41 10
60 2 19 8 58 14 85 10 57 19 122 25 180 2 22 7 76 12 120 12 128 7 800 -7 800
-1 0 -3 20 -5 45 -1 25 -6 63 -9 85 -4 22 -11 65 -16 95 -5 30 -11 64 -14 75
-4 20 -24 101 -29 120 -24 88 -78 203 -110 233 -28 27 -76 36 -102 20z"/>
<path d="M2522 8963 c-51 -25 -63 -91 -40 -228 14 -80 38 -172 64 -240 4 -11
8 -22 8 -25 1 -5 22 -57 41 -105 17 -39 28 -69 29 -75 3 -13 160 -322 190
-375 20 -33 40 -69 46 -80 6 -11 20 -36 33 -56 12 -19 41 -66 65 -105 44 -70
124 -190 140 -209 4 -5 19 -26 32 -45 14 -19 27 -37 30 -40 3 -3 17 -21 31
-40 15 -19 35 -45 45 -56 11 -12 30 -36 44 -55 14 -18 32 -40 40 -49 8 -9 42
-47 75 -85 33 -38 83 -93 111 -122 28 -29 50 -54 50 -55 -1 -2 78 -84 175
-183 l177 -180 -35 115 c-75 246 -83 275 -87 290 -16 61 -51 167 -59 178 -5 6
-7 12 -4 12 11 0 -116 359 -176 500 -6 14 -11 27 -12 30 -1 3 -14 32 -30 65
-15 33 -29 62 -29 65 -2 10 -114 225 -135 260 -11 19 -29 51 -38 70 -10 19
-21 37 -24 40 -4 4 -48 76 -85 141 -6 10 -18 27 -27 37 -10 10 -17 22 -17 26
0 7 -39 66 -51 76 -3 3 -20 27 -39 54 -18 27 -40 56 -49 65 -9 9 -27 32 -41
51 -76 108 -251 275 -329 315 -60 30 -86 34 -119 18z"/>
<path d="M7340 8968 c-94 -26 -254 -171 -409 -371 -94 -121 -211 -292 -211
-307 0 -5 -4 -10 -10 -10 -5 0 -10 -5 -10 -12 0 -6 -11 -26 -25 -44 -14 -18
-25 -35 -25 -38 0 -2 -23 -44 -51 -93 -84 -145 -204 -388 -201 -405 1 -5 -3
-8 -8 -8 -6 0 -10 -6 -10 -13 0 -7 -9 -32 -20 -55 -20 -41 -80 -197 -83 -217
-1 -5 -4 -12 -8 -15 -5 -5 -104 -307 -115 -352 -3 -16 -10 -28 -16 -28 -5 0
-6 -5 -3 -10 4 -6 1 -27 -6 -48 -7 -20 -14 -41 -15 -47 -1 -5 -10 -37 -20 -70
-10 -33 -19 -64 -20 -70 -3 -11 -13 -53 -19 -75 -2 -8 -4 -15 -5 -15 -1 0 -3
-7 -5 -15 -2 -8 -8 -30 -14 -47 -5 -18 -7 -33 -3 -33 3 0 24 19 47 43 22 24
95 102 161 173 67 71 136 145 154 164 18 19 55 60 84 90 28 31 70 78 93 105
23 28 54 64 68 80 14 17 42 51 62 78 21 26 41 47 45 47 4 0 8 5 8 11 0 9 55
86 71 99 12 10 176 256 220 330 24 41 49 84 56 95 68 113 256 506 268 560 1 5
4 17 7 25 42 113 55 161 74 265 4 17 6 63 7 103 0 107 -37 150 -113 130z"/>
<path d="M734 7196 c-23 -6 -48 -17 -57 -24 -25 -21 -30 -67 -12 -101 8 -17
16 -34 16 -38 3 -21 68 -102 138 -171 90 -90 139 -133 241 -208 41 -31 84 -63
95 -72 28 -24 233 -155 275 -177 19 -10 37 -21 40 -24 3 -3 23 -16 45 -28 22
-11 58 -31 80 -43 162 -92 540 -264 625 -285 3 -1 13 -5 22 -9 9 -4 22 -9 30
-10 7 -2 24 -8 38 -13 14 -6 66 -23 115 -38 50 -15 99 -31 110 -36 27 -11 405
-121 430 -124 11 -2 20 -4 20 -5 0 -1 7 -3 16 -5 9 -1 27 -6 40 -10 25 -7 -20
38 -247 251 -214 200 -293 272 -399 359 -33 28 -62 53 -65 56 -3 3 -43 34 -90
69 -47 35 -87 66 -90 69 -3 3 -12 11 -21 16 -9 6 -57 38 -107 73 -50 34 -96
62 -102 62 -5 0 -10 4 -10 8 0 5 -17 17 -37 28 -56 30 -87 48 -93 54 -3 3 -14
10 -25 16 -11 6 -47 26 -80 44 -389 217 -796 353 -941 316z"/>
<path d="M9035 7202 c-2 -2 -18 -6 -37 -8 -18 -3 -60 -12 -93 -21 -33 -8 -64
-16 -70 -17 -5 -1 -14 -4 -20 -7 -5 -4 -23 -9 -39 -13 -43 -10 -199 -73 -293
-117 -45 -22 -86 -39 -92 -39 -5 0 -11 -3 -13 -7 -1 -5 -46 -29 -98 -56 -110
-55 -303 -167 -308 -179 -2 -4 -8 -8 -13 -8 -11 0 -123 -72 -127 -82 -2 -5
-10 -8 -18 -8 -8 0 -14 -4 -14 -10 0 -5 -5 -10 -10 -10 -6 0 -54 -33 -108 -72
-123 -93 -115 -86 -197 -155 -38 -32 -76 -62 -82 -68 -136 -110 -594 -555
-572 -555 8 0 20 5 27 12 7 7 12 9 12 5 0 -3 18 0 40 8 22 8 41 14 43 13 1 -1
25 6 52 15 28 8 91 28 140 42 134 40 270 83 355 112 41 14 80 26 85 28 6 1 17
5 25 8 8 3 49 17 90 32 41 14 87 33 103 41 15 8 27 12 27 9 0 -3 10 0 23 7 12
7 25 11 30 10 4 -1 7 3 7 8 0 5 3 9 8 8 27 -5 421 191 549 275 24 15 47 27 52
27 5 0 16 6 23 13 7 7 47 35 88 61 162 104 328 234 435 341 81 82 138 145 130
145 -4 0 3 12 14 26 25 32 44 98 36 123 -9 28 -40 52 -74 57 -42 7 -111 10
-116 6z"/>
<path d="M4827 6724 c-1 -1 -33 -5 -72 -9 -99 -10 -146 -16 -214 -30 -38 -8
-117 -27 -131 -32 -19 -8 -30 -11 -55 -16 -53 -12 -253 -94 -265 -108 -3 -4
-16 -10 -30 -14 -35 -11 -185 -103 -283 -172 -91 -65 -290 -256 -363 -350 -27
-33 -59 -74 -72 -90 -12 -15 -28 -40 -34 -55 -7 -16 -16 -28 -20 -28 -5 0 -8
-7 -8 -15 0 -8 -4 -15 -9 -15 -13 0 -137 -256 -175 -362 -19 -54 -33 -98 -31
-98 2 0 -3 -16 -11 -35 -8 -19 -12 -35 -9 -35 2 0 0 -11 -5 -26 -6 -14 -12
-39 -15 -57 -4 -18 -10 -50 -15 -72 -30 -139 -33 -518 -5 -650 3 -11 7 -32 10
-47 11 -61 16 -85 27 -123 6 -22 12 -44 13 -50 1 -5 4 -17 7 -25 3 -8 11 -33
18 -55 23 -73 74 -200 83 -206 5 -3 8 -9 7 -13 -4 -20 151 -287 171 -294 5 -2
9 -8 9 -14 0 -9 54 -79 107 -138 l23 -25 1 25 c1 14 0 30 -1 35 -1 6 -2 15 -2
20 4 51 4 134 -1 142 -3 5 -2 15 3 23 4 7 6 19 3 26 -3 9 249 139 773 400
l777 387 146 -73 c80 -41 160 -83 176 -94 17 -12 31 -20 33 -18 1 1 24 -9 52
-23 27 -14 54 -25 59 -25 5 0 10 50 10 118 1 69 5 118 11 120 6 2 16 9 23 16
6 6 37 27 67 46 30 18 92 58 137 87 45 29 87 53 92 53 6 0 11 4 11 9 0 5 15
16 33 25 17 9 79 48 137 87 58 38 113 72 123 76 9 3 17 9 17 14 0 5 6 9 14 9
8 0 21 7 29 15 8 8 29 22 46 32 75 44 266 168 269 175 2 4 8 8 14 8 7 0 255
157 276 175 4 3 -55 156 -87 227 -12 26 -22 51 -22 55 0 5 -6 15 -13 23 -7 8
-31 49 -54 90 -22 41 -48 84 -56 95 -9 11 -37 49 -62 85 -26 36 -72 94 -103
129 -160 184 -344 326 -591 458 -74 39 -288 122 -356 138 -10 2 -48 11 -84 20
-36 9 -78 18 -95 20 -16 1 -41 5 -55 9 -61 13 -392 30 -403 20z"/>
<path d="M6895 5135 c-66 -41 -131 -80 -145 -88 -34 -19 -343 -205 -356 -214
-5 -4 -21 -14 -35 -22 -13 -8 -104 -63 -203 -123 -98 -59 -182 -108 -187 -108
-4 0 -9 -3 -11 -7 -3 -8 -105 -73 -114 -73 -2 0 -35 -20 -74 -45 l-69 -44 0
-98 0 -98 57 -28 c31 -15 64 -32 72 -36 8 -5 38 -20 65 -34 241 -122 244 -123
247 -107 2 8 3 59 3 113 -1 60 3 97 10 98 65 7 638 2 643 -6 4 -5 7 -171 7
-367 l1 -358 -26 -1 c-14 -1 -52 -2 -85 -3 l-60 -1 -2 -127 -2 -128 57 1 c31
1 71 1 88 0 l31 -1 -1 -117 c-1 -65 0 -126 2 -135 3 -11 40 -29 112 -54 l107
-38 0 -1088 c0 -599 2 -1091 5 -1094 3 -3 21 4 41 15 19 11 38 17 41 14 3 -4
6 -2 6 4 0 6 10 13 23 17 12 3 57 25 99 49 42 25 80 42 83 39 3 -3 5 0 5 6 0
7 4 12 10 12 5 0 39 18 75 40 36 22 69 40 74 40 5 0 11 4 13 8 2 4 25 21 53
37 27 16 54 32 60 37 5 5 57 41 115 81 58 40 132 92 164 117 77 60 190 151
196 159 3 3 34 31 69 61 36 30 94 84 130 120 l66 65 -1 1380 c-1 759 -2 1387
-3 1396 -1 14 -131 98 -336 217 -16 9 -32 20 -35 23 -3 3 -32 20 -65 39 -33
19 -62 36 -65 39 -3 3 -19 13 -35 22 -17 9 -102 60 -190 113 -355 216 -389
236 -393 236 -3 0 -20 11 -38 25 -18 14 -35 25 -38 25 -3 0 -30 16 -60 35 -30
19 -61 35 -68 35 -7 0 -67 -34 -133 -75z m1009 -916 c5 -5 9 -369 7 -659 l-1
-75 -325 1 c-178 0 -327 3 -331 6 -4 5 -8 508 -5 703 l1 30 324 0 c179 0 327
-3 330 -6z m3 -992 c7 -7 5 -719 -2 -726 -4 -3 -152 -6 -331 -6 -281 0 -324 2
-325 15 0 19 0 655 1 692 0 22 5 27 28 30 40 4 624 0 629 -5z"/>
<path d="M997 4954 c-1 -1 -58 -5 -127 -8 -223 -12 -293 -20 -495 -60 -70 -14
-165 -42 -195 -56 -19 -10 -37 -18 -40 -17 -17 1 -92 -47 -114 -73 -33 -40
-33 -64 1 -108 23 -31 135 -94 192 -108 9 -2 52 -13 96 -24 44 -11 96 -23 115
-26 33 -5 50 -8 110 -18 226 -39 715 -50 1000 -21 101 10 166 17 184 21 10 2
44 6 75 10 31 3 59 8 62 10 3 1 28 6 55 10 27 3 58 8 69 11 11 2 34 6 50 9 17
3 37 7 45 10 8 3 29 8 46 10 18 2 79 15 135 29 57 14 113 28 124 30 11 2 83
21 160 40 77 20 147 37 155 39 66 17 72 19 59 26 -8 4 -34 11 -59 15 -25 4
-49 10 -55 13 -5 3 -18 7 -30 8 -11 1 -78 17 -150 34 -71 17 -141 34 -155 36
-14 3 -41 9 -60 14 -34 9 -210 47 -260 56 -14 2 -36 7 -50 9 -14 3 -38 8 -55
11 -16 2 -56 9 -88 15 -33 6 -78 12 -100 15 -23 2 -58 6 -77 8 -157 19 -275
26 -478 29 -79 1 -144 1 -145 1z"/>
<path d="M8677 4954 c-1 -1 -72 -5 -157 -8 -149 -6 -199 -10 -285 -20 -121
-15 -142 -18 -164 -21 -13 -2 -25 -6 -27 -8 -4 -4 261 -167 272 -167 4 0 16
-7 26 -17 10 -9 27 -21 37 -27 84 -48 137 -81 139 -88 2 -4 9 -8 15 -8 6 0 26
-10 44 -22 32 -22 33 -25 31 -82 -3 -57 -2 -60 25 -67 15 -4 29 -3 33 2 3 5
10 6 16 3 16 -10 141 -11 161 -2 9 5 17 5 17 1 0 -4 19 -7 42 -6 24 1 43 2 43
3 0 1 36 3 80 5 87 4 154 10 225 19 25 4 63 8 86 10 23 1 45 5 50 8 5 3 29 9
54 12 58 8 75 11 130 26 25 7 52 14 60 16 8 2 34 10 58 19 202 73 245 167 113
249 -29 18 -119 58 -141 62 -3 0 -12 3 -20 7 -26 9 -159 39 -235 52 -16 3 -43
7 -60 10 -16 3 -50 8 -75 10 -25 3 -65 7 -90 10 -82 9 -496 24 -503 19z"/>
<path d="M4580 4072 c-239 -119 -438 -221 -442 -227 -4 -5 -8 -7 -8 -4 0 3
-96 -42 -212 -100 l-213 -107 0 -109 c0 -61 -4 -116 -8 -122 -5 -7 -5 -13 0
-13 10 0 10 -91 0 -107 -5 -7 -5 -13 0 -13 7 0 9 -57 4 -107 -1 -7 -22 -1 -58
18 -54 28 -96 32 -113 11 -3 -4 -63 -36 -134 -72 -125 -63 -270 -139 -351
-182 -22 -12 -43 -21 -47 -20 -5 1 -8 -2 -8 -8 0 -5 -7 -10 -15 -10 -8 0 -15
-5 -15 -12 0 -6 -3 -9 -6 -5 -3 3 -43 -14 -88 -38 -44 -24 -115 -61 -156 -83
l-75 -38 -1 -926 -2 -925 60 -33 c82 -44 288 -149 293 -150 3 0 31 -12 62 -26
129 -57 498 -197 543 -206 9 -1 23 -5 95 -27 39 -11 81 -23 95 -25 14 -3 43
-10 65 -16 22 -6 59 -14 81 -19 l42 -8 0 1266 -1 1265 39 17 c22 9 116 42 209
74 94 32 181 63 195 68 14 6 28 11 33 12 4 2 8 3 10 5 1 1 9 3 17 5 32 8 296
102 318 114 12 6 22 10 22 7 0 -5 72 19 263 88 53 19 97 32 97 29 0 -3 6 -1
13 4 6 6 21 13 32 16 44 12 246 85 251 90 3 3 76 -20 162 -50 140 -49 217 -75
232 -78 3 0 37 -12 75 -27 39 -14 95 -34 125 -43 30 -10 61 -22 68 -28 6 -5
12 -7 12 -4 0 4 30 -5 68 -20 81 -31 135 -47 142 -42 3 2 5 117 5 254 l0 250
-95 48 c-52 26 -99 49 -105 50 -5 1 -12 4 -15 7 -9 10 -178 90 -189 90 -6 0
-11 5 -11 10 0 6 -9 10 -20 10 -11 0 -20 3 -20 8 0 4 -15 13 -32 21 -18 8
-212 104 -431 213 -219 109 -404 198 -410 197 -7 0 -208 -98 -447 -217z"/>
<path d="M2965 3576 c-38 -13 -97 -31 -130 -41 -33 -9 -71 -21 -85 -25 -14 -5
-108 -34 -210 -65 -102 -31 -194 -60 -205 -65 -11 -5 -56 -21 -100 -36 -275
-91 -629 -262 -893 -431 -45 -29 -87 -53 -92 -53 -4 0 -10 -4 -12 -8 -1 -5
-25 -23 -53 -42 -27 -19 -56 -40 -63 -47 -7 -7 -17 -13 -21 -13 -4 0 -16 -8
-27 -18 -10 -10 -29 -25 -41 -33 -131 -91 -356 -329 -370 -392 -14 -66 -13
-76 9 -102 19 -21 34 -27 83 -32 70 -6 207 13 272 38 31 12 62 20 81 21 6 1
12 5 12 10 0 4 3 7 8 6 14 -3 68 16 142 49 41 19 76 34 78 33 1 0 45 20 97 45
51 25 98 45 103 45 6 0 12 3 14 8 2 4 32 22 68 40 36 18 83 44 105 58 22 13
60 35 85 49 53 30 47 26 219 139 75 50 138 92 141 95 3 4 32 26 65 50 33 25
62 48 63 53 2 4 10 8 18 8 8 0 14 3 14 8 0 4 26 27 58 52 31 24 73 59 92 76
19 18 46 42 60 54 151 130 519 490 500 489 -8 0 -46 -11 -85 -23z"/>
<path d="M5480 3210 c-22 -12 -204 -80 -215 -80 -6 -1 -28 -9 -50 -20 -22 -10
-43 -16 -47 -14 -5 3 -8 1 -8 -4 0 -5 -6 -9 -12 -10 -7 0 -74 -24 -148 -52
-74 -28 -139 -52 -145 -54 -10 -3 -26 -9 -62 -23 -10 -3 -20 -7 -23 -8 -3 -1
-17 -7 -31 -13 -15 -6 -64 -24 -110 -41 -46 -16 -109 -39 -139 -51 -30 -12
-62 -22 -70 -23 -8 -1 -18 -6 -21 -10 -3 -5 -12 -9 -20 -10 -8 -2 -20 -6 -26
-10 -7 -5 -13 -6 -13 -4 0 2 -37 -10 -82 -28 l-83 -33 -3 -1201 c-2 -1196 -2
-1201 18 -1202 21 -2 38 -5 43 -9 1 -1 16 -3 32 -4 17 -2 53 -7 80 -11 58 -8
100 -13 170 -20 28 -2 88 -8 135 -12 118 -11 593 -10 720 1 58 5 124 10 147
10 24 1 43 3 43 7 0 3 10 5 23 5 23 1 105 11 147 19 14 3 41 7 60 10 52 7 95
15 200 37 134 27 129 26 153 34 12 4 29 8 37 9 28 3 332 93 380 112 8 4 17 7
20 8 25 6 59 18 75 25 11 5 52 21 90 36 39 15 72 29 75 31 3 3 5 477 5 1056 0
1089 1 1077 -38 1077 -11 0 -124 40 -172 60 -11 5 -108 41 -215 80 -107 39
-204 75 -215 80 -11 4 -45 17 -75 28 -30 11 -93 34 -140 52 -47 17 -94 35
-105 41 -11 5 -29 11 -40 14 -11 2 -60 20 -110 39 -49 20 -93 36 -96 36 -4 0
-23 7 -43 15 -20 8 -39 16 -43 16 -5 1 -15 4 -23 9 -8 4 -22 4 -30 0z m-209
-719 c3 0 5 -166 5 -368 l0 -368 -321 2 c-176 1 -325 2 -330 2 -8 1 -11 120
-11 369 l0 367 325 -1 c179 -1 329 -2 332 -3z m1109 0 c3 0 5 -165 5 -366 0
-358 0 -365 -20 -366 -109 -3 -637 -1 -641 3 -4 5 -5 33 -4 133 0 16 1 172 0
245 0 8 0 88 0 177 -1 90 1 166 3 170 4 6 633 10 657 4z m-1104 -1349 c0 -199
-2 -366 -5 -370 -4 -4 -153 -7 -332 -7 l-326 0 1 365 c0 201 3 367 7 370 4 3
153 5 331 5 l323 -1 1 -362z m1094 359 c13 -1 15 -46 13 -348 -1 -192 -2 -357
-2 -368 -1 -20 -8 -20 -326 -19 -179 0 -328 3 -331 6 -3 4 -5 91 -5 195 1 103
1 197 1 208 0 11 0 67 0 125 0 58 0 112 0 120 -1 50 2 75 9 80 7 4 579 5 641
1z"/>
</g>
</svg>
