<svg width="3667" height="908" viewBox="0 0 3667 908" fill="none" xmlns="http://www.w3.org/2000/svg">
  <path d="M153.951 636.33C136.631 636.33 119.455 633.299 102.424 627.237C85.3927 621.175 73.1243 614.391 65.619 606.886L88.568 565.751C94.63 571.236 104.012 577.009 116.713 583.071C129.703 588.844 142.116 591.731 153.951 591.731C169.25 591.731 181.663 588.123 191.189 580.906C201.004 573.689 205.911 563.73 205.911 551.029C205.911 541.214 203.313 532.699 198.117 525.482C192.921 518.265 186.57 512.348 179.065 507.729C171.56 502.822 160.879 496.904 147.023 489.976C130.569 481.893 119.311 475.831 113.249 471.79C85.2483 453.027 71.248 427.047 71.248 393.85C71.248 366.427 80.341 345.498 98.527 331.065C116.713 316.343 139.662 308.982 167.374 308.982C197.107 308.982 222.365 317.498 243.149 334.529L220.2 373.932C214.715 368.159 206.921 363.251 196.818 359.21C187.003 354.88 176.467 352.715 165.209 352.715C150.776 352.715 139.373 356.035 131.002 362.674C122.919 369.025 118.878 378.551 118.878 391.252C118.878 400.201 121.476 408.283 126.672 415.5C131.868 422.428 138.363 428.49 146.157 433.686C154.24 438.882 165.065 445.233 178.632 452.738C191.622 459.955 201.581 465.728 208.509 470.058C215.437 474.099 221.932 479.007 227.994 484.78C236.365 492.285 243.149 501.234 248.345 511.626C253.541 522.018 256.139 533.42 256.139 545.833C256.139 565.174 251.665 581.628 242.716 595.195C234.056 608.762 221.932 619.01 206.344 625.938C191.045 632.866 173.58 636.33 153.951 636.33ZM454.622 636.33C425.755 636.33 399.054 629.691 374.517 616.412C350.269 602.845 330.928 583.648 316.495 558.823C302.062 533.998 294.845 505.131 294.845 472.223C294.845 439.026 302.062 410.16 316.495 385.623C330.928 360.798 350.269 341.746 374.517 328.467C399.054 315.188 425.755 308.549 454.622 308.549C483.489 308.549 510.046 315.188 534.294 328.467C558.831 341.746 578.316 360.798 592.749 385.623C607.182 410.16 614.399 439.026 614.399 472.223C614.399 505.131 607.182 533.998 592.749 558.823C578.316 583.648 558.831 602.845 534.294 616.412C510.046 629.691 483.489 636.33 454.622 636.33ZM454.622 592.597C474.54 592.597 492.726 587.978 509.18 578.741C525.634 569.215 538.624 555.503 548.15 537.606C557.965 519.42 562.872 497.77 562.872 472.656C562.872 447.253 557.965 425.603 548.15 407.706C538.624 389.52 525.634 375.808 509.18 366.571C493.015 357.334 474.829 352.715 454.622 352.715C434.415 352.715 416.085 357.334 399.631 366.571C383.177 375.808 370.187 389.52 360.661 407.706C351.135 425.603 346.372 447.253 346.372 472.656C346.372 497.77 351.279 519.42 361.094 537.606C370.909 555.503 384.043 569.215 400.497 578.741C417.24 587.978 435.281 592.597 454.622 592.597ZM668.538 313.745H717.467V588.7H808.83V632H668.538V313.745ZM971.915 313.312L1125.2 632H1069.34L1042.06 569.648H896.14L868.861 632H814.736L967.152 313.312H971.915ZM950.265 448.841L915.625 525.915H1023.01L988.802 449.274L970.183 405.541H969.317L950.265 448.841ZM1310.77 632L1246.68 511.626C1233.41 512.203 1221.57 512.492 1211.18 512.492H1199.05V632H1151.86V313.745H1224.17C1260.83 313.745 1290.99 321.395 1314.67 336.694C1338.34 351.705 1350.17 376.241 1350.17 410.304C1350.17 431.665 1345.12 450.14 1335.02 465.728C1325.2 481.027 1310.48 492.863 1290.85 501.234L1366.63 632H1310.77ZM1229.8 473.089C1258.09 473.089 1277.43 467.027 1287.82 454.903C1298.5 442.49 1303.84 427.768 1303.84 410.737C1303.84 372.922 1278.58 354.014 1228.07 354.014H1199.05V473.089H1229.8Z" fill="#FFB054"/>
  <path d="M2535.95 636.33C2518.63 636.33 2501.46 633.299 2484.42 627.237C2467.39 621.175 2455.12 614.391 2447.62 606.886L2470.57 565.751C2476.63 571.236 2486.01 577.009 2498.71 583.071C2511.7 588.844 2524.12 591.731 2535.95 591.731C2551.25 591.731 2563.66 588.123 2573.19 580.906C2583 573.689 2587.91 563.73 2587.91 551.029C2587.91 541.214 2585.31 532.699 2580.12 525.482C2574.92 518.265 2568.57 512.348 2561.07 507.729C2553.56 502.822 2542.88 496.904 2529.02 489.976C2512.57 481.893 2501.31 475.831 2495.25 471.79C2467.25 453.027 2453.25 427.047 2453.25 393.85C2453.25 366.427 2462.34 345.498 2480.53 331.065C2498.71 316.343 2521.66 308.982 2549.37 308.982C2579.11 308.982 2604.37 317.498 2625.15 334.529L2602.2 373.932C2596.72 368.159 2588.92 363.251 2578.82 359.21C2569 354.88 2558.47 352.715 2547.21 352.715C2532.78 352.715 2521.37 356.035 2513 362.674C2504.92 369.025 2500.88 378.551 2500.88 391.252C2500.88 400.201 2503.48 408.283 2508.67 415.5C2513.87 422.428 2520.36 428.49 2528.16 433.686C2536.24 438.882 2547.06 445.233 2560.63 452.738C2573.62 459.955 2583.58 465.728 2590.51 470.058C2597.44 474.099 2603.93 479.007 2609.99 484.78C2618.37 492.285 2625.15 501.234 2630.35 511.626C2635.54 522.018 2638.14 533.42 2638.14 545.833C2638.14 565.174 2633.66 581.628 2624.72 595.195C2616.06 608.762 2603.93 619.01 2588.34 625.938C2573.04 632.866 2555.58 636.33 2535.95 636.33ZM2695.9 313.745H2744.39V632H2695.9V313.745ZM2966.07 636.33C2934.6 636.33 2906.46 629.113 2881.63 614.68C2856.81 600.247 2837.32 580.473 2823.18 555.359C2809.32 529.956 2802.39 501.523 2802.39 470.058C2802.39 439.459 2809.46 411.892 2823.61 387.355C2837.75 362.818 2857.38 343.622 2882.5 329.766C2907.61 315.91 2935.9 308.982 2967.36 308.982C2984.4 308.982 2999.7 310.57 3013.26 313.745C3027.12 316.632 3038.38 320.096 3047.04 324.137C3055.7 327.89 3061.61 331.209 3064.79 334.096L3045.74 374.798C3027.84 360.365 3001.43 353.148 2966.5 353.148C2943.41 353.148 2923.34 358.2 2906.31 368.303C2889.28 378.406 2876.29 392.118 2867.34 409.438C2858.39 426.758 2853.92 446.099 2853.92 467.46C2853.92 491.708 2858.68 513.358 2868.21 532.41C2878.02 551.462 2891.45 566.328 2908.48 577.009C2925.8 587.401 2945.28 592.597 2966.93 592.597C2980.5 592.597 2993.49 591.009 3005.9 587.834C3018.31 584.37 3028.85 579.03 3037.51 571.813V510.327H2972.13V465.728H3085.57V590.432C3075.18 603.422 3059.45 614.391 3038.38 623.34C3017.59 632 2993.49 636.33 2966.07 636.33ZM3139.33 313.745H3187.82V443.645H3299.97V313.745H3348.47V632H3299.97V484.347H3187.82V632H3139.33V313.745ZM3476.08 356.179H3394.67V313.745H3606.41V356.179H3524.14V632H3476.08V356.179Z" fill="#FFB054"/>
  <path d="M1599 452.996C1648.15 452.996 1679.5 461.996 1733 474.496C1679.5 488.496 1648.15 495.996 1599 495.996C1549.85 495.996 1510 486.37 1510 474.496C1510 462.622 1549.85 452.996 1599 452.996Z" fill="#FFB054"/>
  <path d="M1650.88 302.377C1693.45 326.954 1716.1 350.421 1756.18 387.996C1702.85 373.371 1671.95 364.193 1629.38 339.616C1586.81 315.039 1557.12 286.78 1563.05 276.496C1568.99 266.213 1608.31 277.8 1650.88 302.377Z" fill="#FFB054"/>
  <path d="M2078.12 219.377C2053.54 261.945 2030.08 284.592 1992.5 324.674C2007.13 271.342 2016.3 240.445 2040.88 197.877C2065.46 155.309 2093.72 125.613 2104 131.55C2114.28 137.487 2102.7 176.809 2078.12 219.377Z" fill="#FFB054"/>
  <path d="M1929.38 168C1929.38 217.153 1920.38 248.5 1907.88 302C1893.88 248.5 1886.38 217.153 1886.38 168C1886.38 118.847 1896.01 79 1907.88 79C1919.75 79 1929.38 118.847 1929.38 168Z" fill="#FFB054"/>
  <path d="M1774.88 197.877C1799.46 240.445 1807.33 272.092 1823.26 324.674C1784.38 285.342 1762.22 261.945 1737.64 219.377C1713.06 176.809 1701.48 137.487 1711.76 131.55C1722.04 125.613 1750.3 155.309 1774.88 197.877Z" fill="#FFB054"/>
  <path d="M1629.38 609.377C1671.95 584.8 1703.6 576.921 1756.18 560.996C1716.85 599.871 1693.45 622.039 1650.88 646.616C1608.31 671.193 1568.99 682.78 1563.05 672.497C1557.12 662.213 1586.81 633.954 1629.38 609.377Z" fill="#FFB054"/>
  <path d="M2182.62 339.616C2140.05 364.193 2108.4 372.072 2055.82 387.997C2095.15 349.122 2118.55 326.954 2161.12 302.377C2203.69 277.8 2243.01 266.213 2248.95 276.496C2254.88 286.78 2225.19 315.039 2182.62 339.616Z" fill="#FFB054"/>
  <path fill-rule="evenodd" clip-rule="evenodd" d="M2055.84 420.983L1951.5 487.5V507L1913.5 487.5L1789 549.5V572.689C1764.13 544.909 1749 508.219 1749 467.996C1749 381.288 1819.29 310.996 1906 310.996C1976.33 310.996 2035.86 357.242 2055.84 420.983Z" fill="#FFB054"/>
  <path fill-rule="evenodd" clip-rule="evenodd" d="M2200 495.777V485.5L2154.06 457.423C2172.53 454.502 2190.98 452.996 2213 452.996C2262.15 452.996 2302 462.622 2302 474.496C2302 486.37 2262.15 495.996 2213 495.996C2208.53 495.996 2204.21 495.922 2200 495.777Z" fill="#FFB054"/>
  <path fill-rule="evenodd" clip-rule="evenodd" d="M1828.05 821.077C1789.83 812.711 1753.81 798.685 1721 779.956V631.858L1796.5 592.373L1806.78 597.749V558.757L1913.13 505.856L2019.47 558.757V599.867L1949.29 575.491L1828.05 617.595V821.077Z" fill="#FFB054"/>
  <path fill-rule="evenodd" clip-rule="evenodd" d="M1844.36 824.278V631.858L1950.7 592.373L2057.05 631.858V801.401C2012.16 819.816 1962.81 830 1911 830C1888.26 830 1865.99 828.037 1844.36 824.278ZM1932.98 650.051H1879.81V709.135H1932.98V650.051ZM1968.43 650.051H2021.6V709.135H1968.43V650.051ZM1932.98 729.534H1879.81V788.619H1932.98V729.534ZM1968.43 729.534H2021.6V788.619H1968.43V729.534Z" fill="#FFB054"/>
  <path fill-rule="evenodd" clip-rule="evenodd" d="M2073.35 794.259V618.783L2055.63 612.587V590.966H2041.6V570.568H2055.63V511.483H2002.46V530.102L1967.01 512.182V496.355L2073.35 432L2179.7 496.355V720.062C2149.18 750.444 2113.22 775.669 2073.35 794.259ZM2091.08 511.483H2144.25V570.568H2091.08V511.483ZM2091.08 590.966H2144.25V650.051H2091.08V590.966Z" fill="#FFB054"/>
</svg>
